<?xml version="1.0" encoding="UTF-8" standalone="no"?>
<svg
   xmlns:dc="http://purl.org/dc/elements/1.1/"
   xmlns:cc="http://creativecommons.org/ns#"
   xmlns:rdf="http://www.w3.org/1999/02/22-rdf-syntax-ns#"
   xmlns:svg="http://www.w3.org/2000/svg"
   xmlns="http://www.w3.org/2000/svg"
   xmlns:sodipodi="http://sodipodi.sourceforge.net/DTD/sodipodi-0.dtd"
   xmlns:inkscape="http://www.inkscape.org/namespaces/inkscape"
   width="110.00019mm"
   height="110.00019mm"
   viewBox="0 0 110.00019 110.00018"
   version="1.1"
   id="svg8"
   inkscape:version="1.0.2 (e86c870879, 2021-01-15)"
   sodipodi:docname="logo-sk.svg">
  <defs
     id="defs2" />
  <sodipodi:namedview
     id="base"
     pagecolor="#ffffff"
     bordercolor="#666666"
     borderopacity="1.0"
     inkscape:pageopacity="0.0"
     inkscape:pageshadow="2"
     inkscape:zoom="0.67870707"
     inkscape:cx="426.49334"
     inkscape:cy="135.87702"
     inkscape:document-units="mm"
     inkscape:current-layer="layer1"
     inkscape:document-rotation="0"
     showgrid="false"
     fit-margin-top="10"
     fit-margin-left="10"
     fit-margin-right="10"
     fit-margin-bottom="10"
     lock-margins="true"
     inkscape:window-width="1920"
     inkscape:window-height="1016"
     inkscape:window-x="0"
     inkscape:window-y="0"
     inkscape:window-maximized="1" />
  <metadata
     id="metadata5">
    <rdf:RDF>
      <cc:Work
         rdf:about="">
        <dc:format>image/svg+xml</dc:format>
        <dc:type
           rdf:resource="http://purl.org/dc/dcmitype/StillImage" />
        <dc:title></dc:title>
      </cc:Work>
    </rdf:RDF>
  </metadata>
  <g
     inkscape:label="Layer 1"
     inkscape:groupmode="layer"
     id="layer1"
     transform="translate(10,10)">
    <path
       id="rect887"
       style="opacity:0.995719;fill:#0000cc;stroke-width:0;stroke-linecap:round;stroke-linejoin:round;stroke-miterlimit:4;stroke-dasharray:none;fill-opacity:1"
       d="M 0,0 V 340.1582 H 37.794922 V 207.87305 A 170.07874,170.07874 0 0 1 207.87305,37.794922 H 340.1582 V 0 Z"
       transform="scale(0.26458333)" />
    <path
       id="rect2-6-6-2"
       style="fill:#0000cc;fill-opacity:1;stroke-width:0;stroke-miterlimit:4;stroke-dasharray:none"
       d="M 54.999994,20 C 35.609996,20 20,35.609996 20,54.999994 c 0,19.390007 15.609996,35.000004 34.999994,35.000004 19.389996,0 35.000007,-15.609997 35.000007,-35.000004 C 90.000001,35.609996 74.38999,20 54.999994,20 Z m 0,9.999995 c 13.850001,0 24.999997,11.149996 24.999997,24.999999 0,13.850001 -11.149996,25.000007 -24.999997,25.000007 -13.849993,0 -24.999999,-11.150006 -24.999999,-25.000007 0,-13.850003 11.150006,-24.999999 24.999999,-24.999999 z" />
    <rect
       style="fill:#0000cc;fill-opacity:1;stroke-width:0;stroke-miterlimit:4;stroke-dasharray:none"
       width="30"
       height="30"
       x="40"
       y="40"
       ry="15"
       rx="15"
       id="rect6-5-5-1" />
  </g>
</svg>
