<?xml version="1.0" standalone="no"?>
<!DOCTYPE svg PUBLIC "-//W3C//DTD SVG 20010904//EN"
 "http://www.w3.org/TR/2001/REC-SVG-20010904/DTD/svg10.dtd">
<svg version="1.0" xmlns="http://www.w3.org/2000/svg"
 width="700.000000pt" height="700.000000pt" viewBox="0 0 700.000000 700.000000"
 preserveAspectRatio="xMidYMid meet">
<metadata>
Created by potrace 1.14, written by Peter Selinger 2001-2017
</metadata>
<g transform="translate(0.000000,700.000000) scale(0.100000,-0.100000)"
fill="#000000" stroke="none">
<path d="M647 6358 c-15 -9 -17 -5706 -2 -5717 8 -5 518 -7 610 -2 20 1 20 8
20 1193 0 656 3 1227 8 1268 4 41 10 100 13 130 4 45 53 300 69 360 105 404
327 828 595 1135 87 99 294 299 389 374 118 94 275 201 371 253 36 20 86 47
112 61 147 80 428 185 621 232 101 24 297 58 412 71 33 4 606 8 1273 9 667 2
1216 6 1220 9 10 11 8 617 -3 624 -14 9 -5694 9 -5708 0z"/>
<path d="M3865 5075 c-74 -10 -148 -24 -270 -50 -60 -12 -262 -80 -301 -100
-16 -8 -33 -15 -38 -15 -13 0 -202 -98 -285 -147 -88 -53 -231 -159 -310 -230
-417 -371 -675 -867 -739 -1423 -9 -82 -9 -417 0 -490 16 -120 21 -149 44
-255 213 -949 1025 -1646 2004 -1721 142 -11 369 -5 465 11 107 19 158 28 214
40 56 11 212 60 296 93 288 112 535 273 755 492 125 125 130 130 226 257 205
272 359 638 408 968 2 17 7 48 10 70 30 195 21 502 -19 705 -3 14 -7 34 -9 46
-44 230 -175 544 -317 760 -362 549 -923 898 -1589 990 -88 12 -454 11 -545
-1z m430 -629 c198 -20 349 -63 531 -150 324 -155 574 -402 735 -725 43 -87
104 -248 114 -303 2 -11 7 -28 10 -38 3 -10 8 -29 10 -42 3 -13 7 -34 9 -48
36 -188 25 -466 -25 -665 -30 -120 -51 -177 -112 -305 -235 -494 -714 -828
-1272 -889 -81 -8 -294 -7 -350 2 -16 3 -50 9 -75 12 -237 37 -491 147 -694
300 -82 61 -191 165 -258 245 -307 365 -434 861 -342 1335 80 405 329 779 674
1009 172 116 412 214 585 242 22 3 43 8 46 10 3 2 48 6 100 10 52 4 95 7 96 8
4 3 165 -2 218 -8z"/>
<path d="M3999 3809 c-141 -22 -324 -97 -426 -174 -260 -197 -395 -475 -387
-797 9 -409 267 -755 660 -883 100 -33 147 -39 284 -40 134 0 182 6 281 35
201 60 404 208 513 373 52 79 111 208 131 287 9 36 19 74 22 85 13 49 11 274
-2 342 -77 391 -376 692 -758 764 -74 14 -253 18 -318 8z"/>
</g>
</svg>
